# xmcd
#
# Track frame offsets: 
#        150
#        24817
#        56728
#        82010
#
# Disc length: 2176 seconds
#
# Revision: 1
# Processed by: cddbd v1.5.2PL0 Copyright (c) Steve Scherf et al.
# Submitted via: ExactAudioCopyFreeDBPlugin 1.0
#
DISCID=27087e04
DTITLE=Blood Incantation - Hidden History of the Human Race (2019)
DYEAR=2019
DGENRE=Death Metal
TTITLE0=Slave Species of the Gods
TTITLE1=The Giza Power Plant
TTITLE2=Inner Paths (to Outer Space)
TTITLE3=Awakening (i. From the Dream of Existence... ii. ...to the Mul
TTITLE3=tidimensional Nature of Our Reality iii. (Mirror of the Soul))
EXTD=
EXTT0=
EXTT1=
EXTT2=
EXTT3=
PLAYORDER=
